<svg viewBox="0 0 100 100" xmlns="http://www.w3.org/2000/svg">
    <defs>
        <!-- Dégradé or pour le contour -->
        <linearGradient id="goldRim" x1="0%" y1="0%" x2="0%" y2="100%">
            <stop offset="0%" style="stop-color:#fbbf24;stop-opacity:1" />
            <stop offset="100%" style="stop-color:#f59e0b;stop-opacity:1" />
        </linearGradient>

        <!-- Ombre -->
        <filter id="coinShadow">
            <feDropShadow dx="0" dy="3" stdDeviation="4" flood-opacity="0.25"/>
        </filter>
    </defs>

    <!-- Ombre portée au sol -->
    <ellipse cx="50" cy="94" rx="38" ry="5" fill="#000000" opacity="0.2"/>

    <!-- Structure de la pièce en pixels arrondis -->
    <g filter="url(#coinShadow)">
        <!-- Contour extérieur doré (forme octogonale pixelisée) -->
        <!-- Rangée du haut -->
        <rect x="28" y="8" width="8" height="8" fill="#fbbf24" rx="2"/>
        <rect x="36" y="8" width="8" height="8" fill="#fbbf24" rx="2"/>
        <rect x="44" y="8" width="8" height="8" fill="#fbbf24" rx="2"/>
        <rect x="52" y="8" width="8" height="8" fill="#fbbf24" rx="2"/>
        <rect x="60" y="8" width="8" height="8" fill="#fbbf24" rx="2"/>

        <!-- Coins supérieurs -->
        <rect x="20" y="16" width="8" height="8" fill="#fbbf24" rx="2"/>
        <rect x="68" y="16" width="8" height="8" fill="#fbbf24" rx="2"/>

        <!-- Côtés -->
        <rect x="12" y="24" width="8" height="8" fill="#fbbf24" rx="2"/>
        <rect x="76" y="24" width="8" height="8" fill="#fbbf24" rx="2"/>
        <rect x="8" y="32" width="8" height="8" fill="#f59e0b" rx="2"/>
        <rect x="80" y="32" width="8" height="8" fill="#f59e0b" rx="2"/>
        <rect x="8" y="40" width="8" height="8" fill="#f59e0b" rx="2"/>
        <rect x="80" y="40" width="8" height="8" fill="#f59e0b" rx="2"/>
        <rect x="8" y="48" width="8" height="8" fill="#f59e0b" rx="2"/>
        <rect x="80" y="48" width="8" height="8" fill="#f59e0b" rx="2"/>
        <rect x="8" y="56" width="8" height="8" fill="#f59e0b" rx="2"/>
        <rect x="80" y="56" width="8" height="8" fill="#f59e0b" rx="2"/>
        <rect x="12" y="64" width="8" height="8" fill="#fbbf24" rx="2"/>
        <rect x="76" y="64" width="8" height="8" fill="#fbbf24" rx="2"/>

        <!-- Coins inférieurs -->
        <rect x="20" y="72" width="8" height="8" fill="#fbbf24" rx="2"/>
        <rect x="68" y="72" width="8" height="8" fill="#fbbf24" rx="2"/>

        <!-- Rangée du bas -->
        <rect x="28" y="80" width="8" height="8" fill="#fbbf24" rx="2"/>
        <rect x="36" y="80" width="8" height="8" fill="#fbbf24" rx="2"/>
        <rect x="44" y="80" width="8" height="8" fill="#fbbf24" rx="2"/>
        <rect x="52" y="80" width="8" height="8" fill="#fbbf24" rx="2"/>
        <rect x="60" y="80" width="8" height="8" fill="#fbbf24" rx="2"/>

        <!-- Fond intérieur de la pièce -->
        <rect x="28" y="16" width="8" height="8" fill="#fde68a" rx="2"/>
        <rect x="36" y="16" width="8" height="8" fill="#fde68a" rx="2"/>
        <rect x="44" y="16" width="8" height="8" fill="#fde68a" rx="2"/>
        <rect x="52" y="16" width="8" height="8" fill="#fde68a" rx="2"/>
        <rect x="60" y="16" width="8" height="8" fill="#fde68a" rx="2"/>

        <rect x="20" y="24" width="8" height="8" fill="#fde68a" rx="2"/>
        <rect x="28" y="24" width="8" height="8" fill="#fde68a" rx="2"/>
        <rect x="36" y="24" width="8" height="8" fill="#fde68a" rx="2"/>
        <rect x="44" y="24" width="8" height="8" fill="#fde68a" rx="2"/>
        <rect x="52" y="24" width="8" height="8" fill="#fde68a" rx="2"/>
        <rect x="60" y="24" width="8" height="8" fill="#fde68a" rx="2"/>
        <rect x="68" y="24" width="8" height="8" fill="#fde68a" rx="2"/>

        <rect x="16" y="32" width="8" height="8" fill="#fde68a" rx="2"/>
        <rect x="24" y="32" width="8" height="8" fill="#fde68a" rx="2"/>
        <rect x="32" y="32" width="8" height="8" fill="#fde68a" rx="2"/>
        <rect x="40" y="32" width="8" height="8" fill="#fde68a" rx="2"/>
        <rect x="48" y="32" width="8" height="8" fill="#fde68a" rx="2"/>
        <rect x="56" y="32" width="8" height="8" fill="#fde68a" rx="2"/>
        <rect x="64" y="32" width="8" height="8" fill="#fde68a" rx="2"/>
        <rect x="72" y="32" width="8" height="8" fill="#fde68a" rx="2"/>

        <rect x="16" y="40" width="8" height="8" fill="#fde68a" rx="2"/>
        <rect x="24" y="40" width="8" height="8" fill="#fde68a" rx="2"/>
        <rect x="32" y="40" width="8" height="8" fill="#fde68a" rx="2"/>
        <rect x="40" y="40" width="8" height="8" fill="#fde68a" rx="2"/>
        <rect x="48" y="40" width="8" height="8" fill="#fde68a" rx="2"/>
        <rect x="56" y="40" width="8" height="8" fill="#fde68a" rx="2"/>
        <rect x="64" y="40" width="8" height="8" fill="#fde68a" rx="2"/>
        <rect x="72" y="40" width="8" height="8" fill="#fde68a" rx="2"/>

        <rect x="16" y="48" width="8" height="8" fill="#fde68a" rx="2"/>
        <rect x="24" y="48" width="8" height="8" fill="#fde68a" rx="2"/>
        <rect x="32" y="48" width="8" height="8" fill="#fde68a" rx="2"/>
        <rect x="40" y="48" width="8" height="8" fill="#fde68a" rx="2"/>
        <rect x="48" y="48" width="8" height="8" fill="#fde68a" rx="2"/>
        <rect x="56" y="48" width="8" height="8" fill="#fde68a" rx="2"/>
        <rect x="64" y="48" width="8" height="8" fill="#fde68a" rx="2"/>
        <rect x="72" y="48" width="8" height="8" fill="#fde68a" rx="2"/>

        <rect x="16" y="56" width="8" height="8" fill="#fde68a" rx="2"/>
        <rect x="24" y="56" width="8" height="8" fill="#fde68a" rx="2"/>
        <rect x="32" y="56" width="8" height="8" fill="#fde68a" rx="2"/>
        <rect x="40" y="56" width="8" height="8" fill="#fde68a" rx="2"/>
        <rect x="48" y="56" width="8" height="8" fill="#fde68a" rx="2"/>
        <rect x="56" y="56" width="8" height="8" fill="#fde68a" rx="2"/>
        <rect x="64" y="56" width="8" height="8" fill="#fde68a" rx="2"/>
        <rect x="72" y="56" width="8" height="8" fill="#fde68a" rx="2"/>

        <rect x="20" y="64" width="8" height="8" fill="#fde68a" rx="2"/>
        <rect x="28" y="64" width="8" height="8" fill="#fde68a" rx="2"/>
        <rect x="36" y="64" width="8" height="8" fill="#fde68a" rx="2"/>
        <rect x="44" y="64" width="8" height="8" fill="#fde68a" rx="2"/>
        <rect x="52" y="64" width="8" height="8" fill="#fde68a" rx="2"/>
        <rect x="60" y="64" width="8" height="8" fill="#fde68a" rx="2"/>
        <rect x="68" y="64" width="8" height="8" fill="#fde68a" rx="2"/>

        <rect x="28" y="72" width="8" height="8" fill="#fde68a" rx="2"/>
        <rect x="36" y="72" width="8" height="8" fill="#fde68a" rx="2"/>
        <rect x="44" y="72" width="8" height="8" fill="#fde68a" rx="2"/>
        <rect x="52" y="72" width="8" height="8" fill="#fde68a" rx="2"/>
        <rect x="60" y="72" width="8" height="8" fill="#fde68a" rx="2"/>

        <!-- Tomate pixelisée au centre -->
        <!-- Feuilles -->
        <rect x="36" y="28" width="6" height="6" fill="#22c55e" rx="1.5"/>
        <rect x="42" y="28" width="6" height="6" fill="#16a34a" rx="1.5"/>
        <rect x="48" y="28" width="6" height="6" fill="#22c55e" rx="1.5"/>
        <rect x="54" y="28" width="6" height="6" fill="#15803d" rx="1.5"/>

        <!-- Corps tomate -->
        <rect x="32" y="34" width="6" height="6" fill="#fb923c" rx="1.5"/>
        <rect x="38" y="34" width="6" height="6" fill="#f97316" rx="1.5"/>
        <rect x="44" y="34" width="6" height="6" fill="#f97316" rx="1.5"/>
        <rect x="50" y="34" width="6" height="6" fill="#f97316" rx="1.5"/>
        <rect x="56" y="34" width="6" height="6" fill="#fb923c" rx="1.5"/>

        <rect x="28" y="40" width="6" height="6" fill="#f97316" rx="1.5"/>
        <rect x="34" y="40" width="6" height="6" fill="#ea580c" rx="1.5"/>
        <rect x="40" y="40" width="6" height="6" fill="#ea580c" rx="1.5"/>
        <rect x="46" y="40" width="6" height="6" fill="#c2410c" rx="1.5"/>
        <rect x="52" y="40" width="6" height="6" fill="#ea580c" rx="1.5"/>
        <rect x="58" y="40" width="6" height="6" fill="#f97316" rx="1.5"/>

        <rect x="28" y="46" width="6" height="6" fill="#f97316" rx="1.5"/>
        <rect x="34" y="46" width="6" height="6" fill="#ea580c" rx="1.5"/>
        <rect x="40" y="46" width="6" height="6" fill="#c2410c" rx="1.5"/>
        <rect x="46" y="46" width="6" height="6" fill="#c2410c" rx="1.5"/>
        <rect x="52" y="46" width="6" height="6" fill="#ea580c" rx="1.5"/>
        <rect x="58" y="46" width="6" height="6" fill="#f97316" rx="1.5"/>

        <rect x="32" y="52" width="6" height="6" fill="#fb923c" rx="1.5"/>
        <rect x="38" y="52" width="6" height="6" fill="#f97316" rx="1.5"/>
        <rect x="44" y="52" width="6" height="6" fill="#ea580c" rx="1.5"/>
        <rect x="50" y="52" width="6" height="6" fill="#f97316" rx="1.5"/>
        <rect x="56" y="52" width="6" height="6" fill="#fb923c" rx="1.5"/>

        <rect x="38" y="58" width="6" height="6" fill="#fb923c" rx="1.5"/>
        <rect x="44" y="58" width="6" height="6" fill="#fb923c" rx="1.5"/>
        <rect x="50" y="58" width="6" height="6" fill="#fb923c" rx="1.5"/>

        <!-- Highlight sur la tomate -->
        <rect x="36" y="38" width="4" height="4" fill="#ffffff" rx="1" opacity="0.6"/>

        <!-- Petites étoiles dorées dans les coins -->
        <rect x="22" y="22" width="3" height="3" fill="#f59e0b" rx="1" opacity="0.7"/>
        <rect x="71" y="22" width="3" height="3" fill="#f59e0b" rx="1" opacity="0.7"/>
        <rect x="22" y="71" width="3" height="3" fill="#f59e0b" rx="1" opacity="0.7"/>
        <rect x="71" y="71" width="3" height="3" fill="#f59e0b" rx="1" opacity="0.7"/>
    </g>
</svg>
